<svg xmlns="http://www.w3.org/2000/svg" width="334" height="297" viewBox="0 0 334 297" version="1.1"><path d="M 0 35 L 0 70 78 70 L 156 70 156 86 L 156 102 200.500 102 L 245 102 245 86.010 L 245 70.021 289.750 69.760 L 334.500 69.500 334.763 34.750 L 335.026 -0 167.513 -0 L 0 0 0 35 M 0.450 35.500 C 0.451 54.750, 0.585 62.483, 0.749 52.685 C 0.913 42.888, 0.912 27.138, 0.748 17.685 C 0.584 8.233, 0.450 16.250, 0.450 35.500 M 1 92 L 1 102 73 102 L 145 102 145 92 L 145 82 73 82 L 1 82 1 92 M 1 148.487 L 1 184 151.250 183.984 C 272.686 183.972, 302.583 183.714, 307.147 182.640 C 318.534 179.959, 328.073 171.730, 332.062 161.147 C 334.964 153.446, 334.487 139.653, 331.092 133.108 C 327.484 126.151, 320.668 119.582, 313.734 116.380 L 307.500 113.500 154.250 113.237 L 1 112.975 1 148.487 M 1 205 L 1 215 72 215 L 143 215 143 205 L 143 195 72 195 L 1 195 1 205 M 154 205 L 154 215 198.500 215 L 243 215 243 205 L 243 195 198.500 195 L 154 195 154 205 M 0 261.988 L 0 297 153.374 297 C 321.668 297, 310.172 297.418, 319.561 290.958 C 324.958 287.245, 330.501 280.051, 332.244 274.500 C 333.430 270.723, 333.530 271.224, 334.046 283.500 C 334.346 290.650, 334.590 280.525, 334.588 261 C 334.585 238.248, 334.374 230.707, 334 240 C 333.679 247.975, 333.322 253.698, 333.208 252.717 C 332.396 245.756, 321.944 233.711, 313.217 229.679 L 308.500 227.500 154.250 227.238 L 0 226.975 0 261.988 M 0.451 262 C 0.451 281.525, 0.585 289.513, 0.748 279.750 C 0.912 269.988, 0.912 254.013, 0.748 244.250 C 0.585 234.488, 0.451 242.475, 0.451 262" stroke="none" fill="#fffcfc" fill-rule="evenodd"/><path d="" stroke="none" fill="#fcfcfc" fill-rule="evenodd"/></svg>